<svg width="268" height="88" viewBox="0 0 268 88" fill="none" xmlns="http://www.w3.org/2000/svg">
<g clip-path="url(#clip0_0_948)">
<path d="M23.3262 54.5951C17.2697 25.3833 23.0068 6.21765 23.0068 6.21765C23.0068 6.21765 21.4723 17.8857 33.5424 36.6942C33.3905 60.0113 38.0954 72.173 38.0954 72.173L39.0614 71.478L38.0954 72.2984C38.0954 72.2984 30.9367 66.6011 23.3262 54.5951Z" fill="#0A5959"/>
<path d="M51.8559 50.4589C54.7498 53.3037 57.4528 55.2712 59.4041 56.2093C59.3924 56.2055 59.3807 56.1979 59.369 56.1903C59.369 56.1903 61.5618 56.9575 61.9474 56.4448C64.6193 53.6873 65.2736 48.5446 63.4937 38.8782C53.3048 33.2037 52.0195 24.3616 52.0195 24.3616C52.0195 24.3616 50.185 36.6411 51.8559 50.4551V50.4589Z" fill="#0A5959"/>
<path d="M23.0066 6.21784C23.0066 6.21784 14.6249 34.2104 28.8099 74.0875C29.1955 75.2383 28.8099 76.5145 27.7778 77.2818L12.8177 87.5064C11.4 88.5282 9.33575 87.8901 8.6931 86.2265C4.6931 75.6219 -6.26697 40.4698 4.82163 1.99806C5.33964 0.463596 7.01443 -0.428976 8.56457 0.209118L23.0066 6.21784Z" fill="url(#paint0_linear_0_948)"/>
<path d="M51.6339 62.4572L38.0954 72.173C38.0954 72.173 30.8744 53.5125 34.6134 18.1059C34.8705 16.0625 37.0633 15.037 38.8705 16.0625L52.0234 24.3691C52.0234 24.3691 49.445 41.6242 53.184 58.2413C53.5696 59.9011 52.927 61.5647 51.6378 62.461L51.6339 62.4572Z" fill="url(#paint1_linear_0_948)"/>
<path d="M76.6504 40.8532L64.1402 32.8011C63.3651 32.2883 62.2045 33.0555 62.4654 33.9519C65.4333 46.8619 65.0438 53.2505 61.9513 56.4485C61.5657 56.9613 59.3729 56.194 59.3729 56.194C61.4372 57.2158 61.9513 56.7068 61.9513 56.7068C64.0156 55.1723 71.7507 49.6764 76.6504 46.353C78.5862 44.9476 78.5862 42.1332 76.6504 40.857V40.8532Z" fill="#4BDFFF"/>
<path d="M121.624 38.4984L131.513 12.4999H126.025L119.069 31.825L112.113 12.4999H106.434L116.284 38.4984H121.624ZM139.747 38.9732C141.702 38.9732 143.844 38.2401 144.861 36.5537C144.861 37.2868 144.935 38.13 145.013 38.4984H149.788C149.714 37.8755 149.601 36.6297 149.601 35.2358V20.4609H144.6V30.9476C144.6 33.0366 143.322 34.5027 141.102 34.5027C138.769 34.5027 137.718 32.8885 137.718 30.8717V20.4571H132.717V31.8592C132.717 35.7827 135.272 38.9732 139.747 38.9732ZM163.022 39.0453C167.572 39.0453 170.504 36.4436 171.443 33.3253L167.268 32.1137C166.668 33.7279 165.387 34.8636 163.057 34.8636C160.576 34.8636 158.508 33.1392 158.395 30.7577H171.63C171.63 30.6856 171.704 29.9525 171.704 29.2536C171.704 23.4614 168.284 19.9025 162.567 19.9025C157.831 19.9025 153.468 23.6437 153.468 29.398C153.468 35.4865 157.944 39.0416 163.018 39.0416L163.022 39.0453ZM166.781 27.4229H158.508C158.621 25.7745 160.051 23.8678 162.645 23.8678C165.503 23.8678 166.707 25.6264 166.781 27.4229ZM117.788 77.5475C123.992 77.5475 127.412 73.5138 127.412 69.5181C127.412 65.8529 124.818 62.7726 119.969 61.8534L116.245 61.1583C114.29 60.7899 113.352 59.6543 113.352 58.2262C113.352 56.5018 115.007 54.9255 117.527 54.9255C120.911 54.9255 122.115 57.1627 122.376 58.5908L127.038 57.1968C126.438 54.2646 123.953 50.4513 117.488 50.4513C112.448 50.4513 108.203 53.9722 108.203 58.5908C108.203 62.5143 110.948 65.192 115.198 66.0352L118.921 66.7683C120.989 67.1709 122.154 68.3445 122.154 69.8486C122.154 71.6831 120.611 73.039 117.831 73.039C114.072 73.039 112.23 70.7298 112.004 68.1622L107.19 69.408C107.603 73.1112 110.722 77.5475 117.792 77.5475H117.788ZM139.634 77.5475C144.561 77.5475 147.455 74.4672 148.28 71.459L143.883 70.0309C143.47 71.4248 142.193 73.0732 139.634 73.0732C137.075 73.0732 134.898 71.2387 134.898 67.9761C134.898 64.7134 137.04 62.9169 139.599 62.9169C142.158 62.9169 143.244 64.4552 143.696 65.9592L148.171 64.4931C147.381 61.4508 144.526 58.4047 139.486 58.4047C134.111 58.4047 129.897 62.4003 129.897 67.9761C129.897 73.5518 134.185 77.5475 139.634 77.5475ZM156.966 76.9967V66.3998C157.079 64.421 158.321 62.8789 160.425 62.8789C162.832 62.8789 163.844 64.4552 163.844 66.472V76.9967H168.845V65.6288C168.845 61.6673 166.664 58.4806 161.963 58.4806C160.195 58.4806 158.166 59.0655 156.962 60.4595V50.4513H151.961V76.9967H156.962H156.966ZM182.232 77.5475C187.759 77.5475 191.934 73.5138 191.934 67.9761C191.934 62.4383 187.759 58.4047 182.232 58.4047C176.705 58.4047 172.53 62.4003 172.53 67.9761C172.53 73.5518 176.705 77.5475 182.232 77.5475ZM182.232 73.1112C179.79 73.1112 177.531 71.3527 177.531 67.9761C177.531 64.5995 179.786 62.8409 182.232 62.8409C184.678 62.8409 186.933 64.5653 186.933 67.9761C186.933 71.3868 184.678 73.1112 182.232 73.1112ZM204.191 77.5475C209.718 77.5475 213.893 73.5138 213.893 67.9761C213.893 62.4383 209.718 58.4047 204.191 58.4047C198.664 58.4047 194.489 62.4003 194.489 67.9761C194.489 73.5518 198.664 77.5475 204.191 77.5475ZM204.191 73.1112C201.749 73.1112 199.49 71.3527 199.49 67.9761C199.49 64.5995 201.745 62.8409 204.191 62.8409C206.637 62.8409 208.892 64.5653 208.892 67.9761C208.892 71.3868 206.637 73.1112 204.191 73.1112ZM222.839 76.9967V50.4513H217.838V76.9967H222.839ZM231.112 77.255C233.028 77.255 234.571 75.7509 234.571 73.9202C234.571 72.0895 233.028 70.5854 231.112 70.5854C229.196 70.5854 227.692 72.0895 227.692 73.9202C227.692 75.7509 229.235 77.255 231.112 77.255ZM242.13 56.0232C243.86 56.0232 245.215 54.6673 245.215 53.053C245.215 51.4388 243.86 50.0107 242.13 50.0107C240.401 50.0107 239.046 51.3666 239.046 53.053C239.046 54.7394 240.436 56.0232 242.13 56.0232ZM244.65 76.9967V58.9554H239.649V76.9967H244.65ZM258.298 77.5475C263.825 77.5475 268 73.5138 268 67.9761C268 62.4383 263.825 58.4047 258.298 58.4047C252.771 58.4047 248.596 62.4003 248.596 67.9761C248.596 73.5518 252.771 77.5475 258.298 77.5475ZM258.298 73.1112C255.856 73.1112 253.597 71.3527 253.597 67.9761C253.597 64.5995 255.852 62.8409 258.298 62.8409C260.744 62.8409 262.999 64.5653 262.999 67.9761C262.999 71.3868 260.744 73.1112 258.298 73.1112Z" fill="white"/>
</g>
<defs>
<linearGradient id="paint0_linear_0_948" x1="14.4779" y1="0.000732422" x2="14.4779" y2="87.9985" gradientUnits="userSpaceOnUse">
<stop stop-color="#0BD895"/>
<stop offset="1" stop-color="#4BDFFF"/>
</linearGradient>
<linearGradient id="paint1_linear_0_948" x1="43.4171" y1="15.66" x2="43.4171" y2="72.173" gradientUnits="userSpaceOnUse">
<stop stop-color="#0BD895"/>
<stop offset="1" stop-color="#4BDFFF"/>
</linearGradient>
<clipPath id="clip0_0_948">
<rect width="268" height="88" fill="white"/>
</clipPath>
</defs>
</svg>
